<svg width="25" height="24" viewBox="0 0 25 24" fill="none" xmlns="http://www.w3.org/2000/svg">
<path fill-rule="evenodd" clip-rule="evenodd" d="M7.94815 12C7.94815 11.4804 8.0344 10.9821 8.18853 10.5149L5.49228 8.45599C4.96678 9.52287 4.67078 10.7251 4.67078 12C4.67078 13.2739 4.96653 14.4752 5.49115 15.5415L8.1859 13.4786C8.03328 13.0135 7.94815 12.5171 7.94815 12Z" fill="#FBBC05"/>
<path fill-rule="evenodd" clip-rule="evenodd" d="M12.6822 7.27275C13.8111 7.27275 14.8307 7.67275 15.6318 8.32725L17.9623 6C16.5422 4.76363 14.7214 4 12.6822 4C9.51618 4 6.79518 5.8105 5.49231 8.456L8.18843 10.5149C8.80968 8.62912 10.5806 7.27275 12.6822 7.27275Z" fill="#EA4335"/>
<path fill-rule="evenodd" clip-rule="evenodd" d="M12.6822 16.7272C10.5807 16.7272 8.80981 15.3709 8.18856 13.4851L5.49231 15.5436C6.79518 18.1895 9.51619 20 12.6822 20C14.6362 20 16.5018 19.3061 17.9019 18.0061L15.3427 16.0276C14.6206 16.4825 13.7112 16.7272 12.6822 16.7272Z" fill="#34A853"/>
<path fill-rule="evenodd" clip-rule="evenodd" d="M20.3293 12C20.3293 11.5273 20.2564 11.0181 20.1471 10.5455H12.6821V13.6364H16.9791C16.7643 14.6903 16.1795 15.5004 15.3426 16.0276L17.9019 18.0061C19.3726 16.6411 20.3293 14.6076 20.3293 12Z" fill="#4285F4"/>
</svg>
